<svg
      width="965"
      height="545"
      viewBox="0 0 965 545"
      fill="none"
      xmlns="http://www.w3.org/2000/svg"
    >
      <line x1="2.50293" y1="35.014" x2="2.50293" y2="137.011" stroke="black" stroke-width="5" />
      <line x1="35.9888" y1="167.458" x2="35.9888" y2="371.453" stroke="black" stroke-width="5" />
      <line x1="135.468" y1="373.953" x2="33.4888" y2="373.953" stroke="black" stroke-width="5" />
      <line x1="69.0408" y1="412.556" x2="69.0408" y2="371.453" stroke="black" stroke-width="5" />
      <line
        y1="-2.5"
        x2="25.8328"
        y2="-2.5"
        transform="matrix(-0.707045 -0.707168 0.707045 -0.707168 88.2837 424.735)"
        stroke="black"
        stroke-width="5"
      />
      <line x1="135.468" y1="393.743" x2="112.637" y2="393.743" stroke="black" stroke-width="5" />
      <line
        y1="-2.5"
        x2="64.5821"
        y2="-2.5"
        transform="matrix(0.707045 -0.707168 0.707045 0.707168 71.5408 441.48)"
        stroke="black"
        stroke-width="5"
      />
      <line
        y1="-2.5"
        x2="60.2766"
        y2="-2.5"
        transform="matrix(0.707045 -0.707168 0.707045 0.707168 105.027 476.494)"
        stroke="black"
        stroke-width="5"
      />
      <line x1="169.498" y1="513.031" x2="169.498" y2="406.467" stroke="black" stroke-width="5" />
      <line x1="171.998" y1="510.531" x2="789.964" y2="510.531" stroke="black" stroke-width="5" />
      <line x1="143.079" y1="434.413" x2="171.998" y2="434.413" stroke="black" stroke-width="5" />
      <line
        y1="-2.5"
        x2="32.291"
        y2="-2.5"
        transform="matrix(0.707045 0.707168 -0.707045 0.707168 114.159 458.226)"
        stroke="black"
        stroke-width="5"
      />
      <line x1="135.468" y1="478.561" x2="171.998" y2="478.561" stroke="black" stroke-width="5" />
      <line
        y1="-2.5"
        x2="51.6657"
        y2="-2.5"
        transform="matrix(0.707045 0.707168 -0.707045 0.707168 783.875 508.464)"
        stroke="black"
        stroke-width="5"
      />
      <line x1="820.405" y1="542.5" x2="926.951" y2="542.5" stroke="black" stroke-width="5" />
      <line
        y1="-2.5"
        x2="53.8184"
        y2="-2.5"
        transform="matrix(0.707045 -0.707168 0.707045 0.707168 926.951 545)"
        stroke="black"
        stroke-width="5"
      />
      <line x1="962.503" y1="506.941" x2="962.503" y2="398.855" stroke="black" stroke-width="5" />
      <line
        y1="-2.5"
        x2="60.2766"
        y2="-2.5"
        transform="matrix(-0.707045 -0.707168 0.707045 -0.707168 965.003 398.855)"
        stroke="black"
        stroke-width="5"
      />
      <line x1="922.929" y1="360.796" x2="922.929" y2="156.802" stroke="black" stroke-width="5" />
      <line x1="882.811" y1="161.913" x2="925.429" y2="161.913" stroke="black" stroke-width="5" />
      <line x1="885.311" y1="123.31" x2="885.311" y2="164.413" stroke="black" stroke-width="5" />
      <line
        y1="-2.5"
        x2="27.9856"
        y2="-2.5"
        transform="matrix(0.707045 0.707168 -0.707045 0.707168 864.545 109.609)"
        stroke="black"
        stroke-width="5"
      />
      <line
        y1="-2.5"
        x2="47.3602"
        y2="-2.5"
        transform="matrix(-0.707045 0.707168 -0.707045 -0.707168 878.244 95.9078)"
        stroke="black"
        stroke-width="5"
      />
      <line
        y1="-2.5"
        x2="45.2074"
        y2="-2.5"
        transform="matrix(-0.707045 -0.707168 0.707045 -0.707168 878.244 95.9078)"
        stroke="black"
        stroke-width="5"
      />
      <line
        y1="-2.5"
        x2="55.9711"
        y2="-2.5"
        transform="matrix(-0.707045 0.707168 -0.707045 -0.707168 843.236 62.4162)"
        stroke="black"
        stroke-width="5"
      />
      <path d="M777.243 31.9693L777.243 61.0105" stroke="black" stroke-width="5" />
      <line x1="818.883" y1="58.8268" x2="774.743" y2="58.8268" stroke="black" stroke-width="5" />
      <line
        y1="-2.5"
        x2="27.9856"
        y2="-2.5"
        transform="matrix(-0.707045 -0.707168 0.707045 -0.707168 838.67 76.1174)"
        stroke="black"
        stroke-width="5"
      />
      <line
        y1="-2.5"
        x2="55.9711"
        y2="-2.5"
        transform="matrix(0.707045 0.707168 -0.707045 0.707168 65.4524 436.913)"
        stroke="black"
        stroke-width="5"
      />
      <line
        y1="-2.5"
        x2="51.6657"
        y2="-2.5"
        transform="matrix(0.707045 0.707168 -0.707045 0.707168 0.00292969 137.011)"
        stroke="black"
        stroke-width="5"
      />
      <line x1="38.2627" y1="1.80497" x2="1.72972" y2="36.8158" stroke="black" stroke-width="5" />
      <line
        y1="-2.5"
        x2="46.3969"
        y2="-2.5"
        transform="matrix(-0.656114 -0.754662 0.754549 -0.656244 173.52 35.014)"
        stroke="black"
        stroke-width="5"
      />
      <line x1="143.079" y1="2.5" x2="36.5331" y2="2.5" stroke="black" stroke-width="5" />
      <line x1="779.003" y1="34.5056" x2="167.003" y2="34.5056" stroke="black" stroke-width="5" />
    </svg>