<svg width="70" height="70" viewBox="0 0 70 70" fill="none" xmlns="http://www.w3.org/2000/svg">
  <g>
    <circle cx="35.0002" cy="23.3332" r="10.6667" stroke="#33363F" stroke-width="2" stroke-linecap="round"/>
    <path d="M42.8718 22.375C43.8995 20.5949 45.5923 19.2961 47.5776 18.7641C49.563 18.2321 51.6784 18.5106 53.4585 19.5383C55.2385 20.566 56.5374 22.2588 57.0694 24.2442C57.6014 26.2295 57.3229 28.3449 56.2952 30.125C55.2675 31.9051 53.5747 33.2039 51.5893 33.7359C49.604 34.2679 47.4885 33.9894 45.7085 32.9617C43.9284 31.934 42.6296 30.2412 42.0976 28.2558C41.5656 26.2705 41.8441 24.1551 42.8718 22.375Z" stroke="#33363F" stroke-width="2"/>
    <path d="M13.7048 22.375C14.7325 20.5949 16.4253 19.2961 18.4107 18.7641C20.396 18.2321 22.5115 18.5106 24.2915 19.5383C26.0716 20.566 27.3704 22.2588 27.9024 24.2442C28.4344 26.2295 28.1559 28.3449 27.1282 30.125C26.1005 31.9051 24.4077 33.2039 22.4224 33.7359C20.437 34.2679 18.3216 33.9894 16.5415 32.9617C14.7615 31.934 13.4626 30.2412 12.9306 28.2558C12.3986 26.2705 12.6771 24.1551 13.7048 22.375L13.7048 22.375Z" stroke="#33363F" stroke-width="2"/>
    <path d="M49.2382 52.5002L48.2579 52.6976L48.4195 53.5002H49.2382V52.5002ZM61.0405 51.3893L60.0655 51.6117V51.6117L61.0405 51.3893ZM43.1108 42.9059L42.506 42.1095L41.3494 42.988L42.5827 43.755L43.1108 42.9059ZM60.1173 51.5002H49.2382V53.5002H60.1173V51.5002ZM60.0655 51.6117C60.0638 51.6042 60.0623 51.5867 60.0678 51.5652C60.0728 51.5451 60.0817 51.53 60.0901 51.5201C60.107 51.5 60.1221 51.5002 60.1173 51.5002V53.5002C61.3021 53.5002 62.3047 52.4354 62.0154 51.167L60.0655 51.6117ZM49.5835 41.8335C53.3497 41.8335 55.7733 43.5533 57.3681 45.628C58.9904 47.7386 59.7475 50.2176 60.0655 51.6117L62.0154 51.167C61.6687 49.6469 60.8283 46.8479 58.9537 44.4091C57.0516 41.9345 54.0791 39.8335 49.5835 39.8335V41.8335ZM43.7157 43.7022C45.1651 42.6013 47.0639 41.8335 49.5835 41.8335V39.8335C46.62 39.8335 44.2978 40.7486 42.506 42.1095L43.7157 43.7022ZM42.5827 43.755C46.2741 46.0509 47.7078 49.9665 48.2579 52.6976L50.2185 52.3027C49.6247 49.3544 48.0197 44.7813 43.639 42.0567L42.5827 43.755Z" fill="#33363F"/>
    <path d="M26.8891 42.9058L27.4173 43.755L28.6506 42.988L27.494 42.1095L26.8891 42.9058ZM8.9595 51.3893L7.98454 51.167H7.98454L8.9595 51.3893ZM20.7617 52.5002V53.5002H21.5804L21.7421 52.6976L20.7617 52.5002ZM20.4166 41.8335C22.9362 41.8335 24.8349 42.6013 26.2843 43.7022L27.494 42.1095C25.7022 40.7486 23.38 39.8335 20.4166 39.8335V41.8335ZM9.93447 51.6117C10.2524 50.2175 11.0096 47.7386 12.632 45.628C14.2267 43.5532 16.6504 41.8335 20.4166 41.8335V39.8335C15.921 39.8335 12.9484 41.9345 11.0463 44.4091C9.1717 46.8479 8.33125 49.6469 7.98454 51.167L9.93447 51.6117ZM9.88265 51.5002C9.87788 51.5002 9.893 51.5 9.90992 51.5201C9.91826 51.53 9.92715 51.5451 9.93222 51.5652C9.93767 51.5867 9.93618 51.6042 9.93447 51.6117L7.98454 51.167C7.69524 52.4354 8.69782 53.5002 9.88265 53.5002V51.5002ZM20.7617 51.5002H9.88265V53.5002H20.7617V51.5002ZM21.7421 52.6976C22.2921 49.9665 23.7258 46.0509 27.4173 43.755L26.361 42.0567C21.9802 44.7812 20.3752 49.3544 19.7814 52.3027L21.7421 52.6976Z" fill="#33363F"/>
    <path d="M34.9998 40.8335C47.2564 40.8335 49.2119 51.1345 49.5239 54.4216C49.5761 54.9714 49.1355 55.4168 48.5832 55.4168H21.4165C20.8642 55.4168 20.4235 54.9714 20.4757 54.4216C20.7877 51.1345 22.7433 40.8335 34.9998 40.8335Z" stroke="#33363F" stroke-width="2" stroke-linecap="round"/>
  </g>
</svg>
